<?xml version="1.0" encoding="UTF-8" standalone="no"?>
<svg xmlns:dc="http://purl.org/dc/elements/1.1/" xmlns:cc="http://creativecommons.org/ns#"
     xmlns:rdf="http://www.w3.org/1999/02/22-rdf-syntax-ns#" xmlns:svg="http://www.w3.org/2000/svg"
     xmlns="http://www.w3.org/2000/svg" id="svg8" version="1.1" viewBox="0 0 93.509354 93.508835" height="93.508835mm"
     width="93.509354mm">
    <defs id="defs2"/>
    <metadata id="metadata5">
        <rdf:RDF>
            <cc:Work rdf:about="">
                <dc:format>image/svg+xml</dc:format>
                <dc:type rdf:resource="http://purl.org/dc/dcmitype/StillImage"/>
                <dc:title></dc:title>
            </cc:Work>
        </rdf:RDF>
    </metadata>
    <g transform="translate(-59.799997,-98.843259)" id="layer1">
        <g transform="matrix(0.18708867,0.18708867,-0.18708867,0.18708867,108.08492,66.076479)" id="g77">
            <g id="g18">
                <g id="g16">
                    <g id="g14">
                        <path d="m 141.618,256.213 1.093,6.988 2.675,-0.698 c 4.519,-1.179 9.29,-1.776 14.18,-1.776 21.297,0 44.095,11.529 58.089,29.388 12.429,15.647 29.196,25.514 48.494,28.528 l 2.896,0.451 -0.01,-2.929 c -0.057,-20.013 3.135,-40.343 6.221,-60.003 0.748,-4.769 1.521,-9.693 2.237,-14.549 4.529,-30.73 1.613,-59.851 -8.915,-89.021 -1.163,-3.228 -2.34,-6.447 -3.515,-9.663 -13.146,-35.98 -25.564,-69.978 -18.833,-109.396 4.256,-3.636 6.677,-8.854 6.677,-14.47 C 252.907,8.551 244.354,0 233.844,0 h -50.82 c -10.512,0 -19.063,8.552 -19.063,19.063 0,5.615 2.421,10.834 6.676,14.47 6.732,39.418 -5.688,73.415 -18.833,109.396 -1.175,3.216 -2.351,6.436 -3.514,9.662 -10.529,29.172 -13.445,58.292 -8.916,89.023 0.717,4.87 1.493,9.816 2.244,14.599 z M 198.256,40.829 h 20.351 c -3.92,41.305 9.054,76.809 21.605,111.172 l 0.5,1.371 c 0.995,2.727 1.991,5.457 2.98,8.201 2.049,5.674 3.785,11.473 5.179,17.277 h -80.883 c 1.395,-5.809 3.134,-11.61 5.183,-17.289 0.985,-2.733 1.98,-5.462 2.976,-8.188 l 0.501,-1.371 c 12.555,-34.363 25.528,-69.868 21.608,-111.173 z"
                              id="path10"
                              fill="#01AB46"/>
                        <path d="m 277.873,366.896 c -3.886,-10.191 -6.422,-20.673 -7.756,-32.041 l -0.31,-2.632 -2.607,0.461 c -3.293,0.58 -6.718,0.873 -10.179,0.873 -19.107,0 -39.499,-9.133 -53.214,-23.834 -2.166,-2.319 -4.269,-4.739 -6.301,-7.08 -6.411,-7.381 -13.04,-15.012 -22.419,-20.316 -8.023,-4.549 -17.33,-7.239 -27.66,-7.997 l -3.08,-0.227 0.421,3.06 c 3.912,28.47 5.919,59.044 -5.779,89.735 -4.258,11.19 -4.036,21.381 0.642,29.467 5.339,9.229 16.016,15.362 30.874,17.737 9.462,1.519 23.189,2.228 31.391,2.648 2.932,0.15 10.141,0.15 13.072,0 8.201,-0.424 21.93,-1.133 31.391,-2.648 14.858,-2.375 25.536,-8.508 30.875,-17.737 4.676,-8.086 4.898,-18.275 0.639,-29.469 z"
                              id="path12"
                              fill="#00529F"/>
                    </g>
                </g>
            </g>
            <g id="g20"></g>
            <g id="g22"></g>
            <g id="g24"></g>
            <g id="g26"></g>
            <g id="g28"></g>
            <g id="g30"></g>
            <g id="g32"></g>
            <g id="g34"></g>
            <g id="g36"></g>
            <g id="g38"></g>
            <g id="g40"></g>
            <g id="g42"></g>
            <g id="g44"></g>
            <g id="g46"></g>
            <g id="g48"></g>
        </g>
    </g>
</svg>
